PathFileType	4	(X/Y/Z)	Patient5_TMGait_0pt45_1_right_03.trc.trc
DataRate	CameraRate	NumFrames	NumMarkers	Units	OrigDataRate	OrigDataStartFrame	OrigNumFrames
60.085836909871	60.085836909871	6	32	mm	60.085836909871	124	       141
Frame#	Time	R.ASIS			L.ASIS			Chest			R.Shoulder			Neck			L.Shoulder			L.Elbow			L.Wrist			R.Elbow			R.Wrist			L.Thigh.Superior			L.Thigh.Lateral			L.Thigh.Inferior			L.Patella			L.Shank.Superior			L.Shank.Lateral			L.Shank.Inferior			L.Heel			L.Midfoot.Lateral			L.Midfoot.Superior			L.Toe			R.Thigh.Superior			R.Thigh.Lateral			R.Thigh.Inferior			R.Patella			R.Shank.Superior			R.Shank.Lateral			R.Shank.Inferior			R.Heel			R.Midfoot.Lateral			R.Midfoot.Superior			R.Toe			
		X1	Y1	Z1	X2	Y2	Z2	X3	Y3	Z3	X4	Y4	Z4	X5	Y5	Z5	X6	Y6	Z6	X7	Y7	Z7	X8	Y8	Z8	X9	Y9	Z9	X10	Y10	Z10	X11	Y11	Z11	X12	Y12	Z12	X13	Y13	Z13	X14	Y14	Z14	X15	Y15	Z15	X16	Y16	Z16	X17	Y17	Z17	X18	Y18	Z18	X19	Y19	Z19	X20	Y20	Z20	X21	Y21	Z21	X22	Y22	Z22	X23	Y23	Z23	X24	Y24	Z24	X25	Y25	Z25	X26	Y26	Z26	X27	Y27	Z27	X28	Y28	Z28	X29	Y29	Z29	X30	Y30	Z30	X31	Y31	Z31	X32	Y32	Z32	

124	6.517071428571	941.526640644386	981.072175644664	543.640021402322	932.350606299399	952.365867720422	302.201834368139	956.742315303092	1437.013686617009	436.904434521587	844.773971592864	1488.827472092997	601.821678325799	820.480127267686	1545.840509979784	416.847789213903	896.504789058312	1497.966889341169	238.636631942327	874.285534864468	1168.464070651589	111.314945408277	1017.774052382049	920.325875975332	130.785273562625	761.944218921236	1165.539398195625	732.555577064453	975.884100213151	976.041529422985	680.626374988168	914.640859428913	722.196057268620	307.711676793036	823.580996945346	665.323121678458	270.731979266309	880.041748828085	595.635543271741	333.490359804638	845.434886648861	480.266612168379	341.196455299619	780.305625416993	388.594972797474	364.587642358649	699.104081690046	333.835897293859	293.350901384463	727.248239126746	275.024061584545	379.286756741810	557.395145651342	54.531554493294	388.277551149871	642.061205953528	30.976578271902	323.597382709113	741.129097028385	88.352667460559	362.271604170974	847.984649504158	45.086274940482	360.678041281736	992.305432484384	754.863653167837	572.155975058798	921.786452399373	665.711620980692	628.036912683498	1012.063681227860	627.323128617894	557.481205758818	1031.617955727161	532.055786341975	593.362831801302	1008.016054596686	427.937971549582	555.783206470292	938.196470485833	350.005410256400	629.262194181618	1011.855444797784	287.809863666047	556.168220543257	926.884190280273	56.158398306237	513.898063579425	1000.810361580095	24.507560388432	591.615765990880	1101.678121401596	98.867954632167	588.379823839954	1208.087404309010	63.297892501941	593.476683472136	
125	6.533714285714	942.660628886832	978.182745907105	546.058410990931	933.139831496893	950.981870351694	304.581926818830	957.751907240019	1435.486771444857	440.662479922554	847.253366376134	1486.472436657928	606.742689687244	820.892521295150	1544.087711025308	422.061354398030	894.895496374661	1496.828051832110	242.851562220502	868.422325836166	1168.481228207137	113.686366165448	1007.926676958784	917.760376864033	128.501128726913	767.034919207011	1162.363745284416	737.289243730231	979.874003423933	972.509018826315	682.327137063232	914.516186717249	720.777332120637	309.712903942893	823.187610678757	664.231932365601	272.393104476626	879.317442485359	594.290685924059	335.156406563115	843.803256908663	478.260100830408	342.591878648169	777.287070292904	387.632000073759	365.909038170214	695.640000021806	333.893511264291	294.195502963231	722.526220972344	274.968768003957	380.401167264312	550.155660484104	55.866986175913	388.323486680856	634.695107828162	31.914522026867	323.682077892038	733.944293980826	88.481842888276	362.402951694155	840.510067028250	44.975257928669	360.563903504044	990.330189009299	751.041151715569	572.877186370821	918.259809612290	662.290228469831	627.689849038657	1008.061364146768	623.273159305953	556.838738325800	1026.410265460472	527.690684646693	591.615295565770	1002.502455497820	424.459461768568	553.226887710012	932.736418050666	346.392881181113	626.638575128122	1005.923145360123	284.312583205274	552.936518816021	920.011848124255	53.496692821364	509.966766154845	993.055882078458	22.976500647090	588.737010946543	1095.227140292531	95.329388388800	583.301863758749	1201.128024716355	57.872179423257	589.731064419390	
126	6.550357142857	943.428437791928	975.965191104086	548.720036685278	933.904819903079	949.916795629468	307.211408862192	959.070905532977	1434.330772726193	444.620927339933	849.848699358483	1484.624956362893	611.680574637825	821.765853046248	1542.874974184827	427.241823288521	893.952197331194	1496.113864702773	247.186641855150	862.781012202152	1168.889960755322	116.562790327662	997.902818386809	915.570404989849	126.323151652373	772.404495464041	1159.595978953292	741.842124068585	984.146311580151	969.372117563155	684.086931461062	914.572627553122	719.740754519684	312.051876721452	823.147413487565	663.384399311888	274.252938237564	878.991378049461	593.302950325405	337.070945409457	842.727631872919	476.437640121034	344.081098703992	774.788487022703	386.918422614252	367.292949521311	692.610858748714	334.273957743264	294.974063127005	718.157348613774	275.284909517109	381.581274318890	543.051295639987	57.818731878794	388.207489237869	627.433408665948	33.160210321250	323.686635870434	726.991672528888	88.730622276796	362.423351069815	833.071147163296	44.835444199579	360.444975947065	988.716398319366	748.529081299131	573.936739007761	915.715856348293	660.085641198332	627.935353453239	1004.982358627082	620.661969605298	556.633947110013	1022.483380082255	524.771903828505	590.389302120462	998.003834664043	422.175244746978	551.428001822897	928.459346453942	344.115779365195	625.134036760222	1000.682388349018	281.987467589152	550.527520483075	913.209944669215	51.908755791442	507.208975148173	985.516580905908	22.483111105198	586.870222889352	1089.003597377878	92.867509745537	579.146168510179	1194.367992227683	53.512376327578	586.786113988073	
127	6.567000000000	943.857334171176	974.497031368097	551.597568692202	934.561623387556	949.296687980274	310.048483019279	960.667276315247	1433.642494914315	448.744495804476	852.506697965576	1483.422390403178	616.571308052684	823.091049734624	1542.317719541171	432.313159711958	893.776939384397	1495.951842682473	251.602138797546	857.416897637229	1169.840375769845	119.939346753793	987.717985229524	913.913246400561	124.348449817193	777.924177596179	1157.422259055508	746.168937413959	988.647970383909	966.871671370039	685.899073195666	914.755021132016	719.226250936590	314.623233173048	823.394560152776	662.925961504754	276.245288508699	879.048327423379	592.790130599965	339.109589488592	842.189829617446	474.933582841110	345.515610678933	772.832805673733	386.530607823318	368.604274037149	689.988584226252	335.071918463043	295.616146089823	714.185253357479	276.009589282907	382.683143689352	536.110274639310	60.481313645723	387.914719758921	620.290895086005	34.742725641131	323.600017937289	720.326506108671	89.116534287878	362.274399106760	825.668386497456	44.668489680575	360.319417665824	987.628140381582	747.288926009745	575.444534533757	914.225447091192	659.037802200572	628.838108670823	1002.996735986294	619.432079432653	557.058708969019	1019.896211061924	523.213782944673	589.916902301346	994.550511359205	420.958416439134	550.575078365433	925.244726657574	343.075452801357	624.820437871548	996.094715397417	280.715320256378	549.099838728472	906.395511547529	51.241224614804	505.605862794225	978.173636304104	22.671701968078	585.884280683734	1082.855653421355	91.325800349878	576.133419750756	1187.707107653354	50.262918934270	584.704271760932	
128	6.583642857143	944.035706260959	973.762372207331	554.662234439561	935.041068645213	949.201394123201	313.041884797821	962.488503603786	1433.464179361135	452.990425203153	855.172566245336	1482.936084473926	621.360209691961	824.820137143841	1542.455070299480	437.224618843512	894.421716597768	1496.402595595949	256.063325888887	852.394603802457	1171.437683907738	123.743270959876	977.438145967122	912.912511592427	122.685838895177	783.421283877765	1155.973344214361	750.252605277697	993.318479969501	965.240173174402	687.764067546670	915.026630904175	719.324675049480	317.250575831104	823.846583313227	662.966838194715	278.276138611670	879.469656001002	592.816207221371	341.080020280540	842.156632525056	473.829802640961	346.697877693974	771.414170242855	386.494544923031	369.671196909087	687.722019681450	336.343174063598	296.048727814027	710.637994757486	277.124844320062	383.527287200606	529.354539104594	63.895303761269	387.446634098153	613.273973608776	36.661962699652	323.418029579719	713.986122373282	89.635519750992	361.908745461665	818.296966041082	44.481125909395	360.186736142705	987.131944416153	747.094562751814	577.534406330914	913.627828464487	658.923667926524	630.396424513033	1002.109775587822	619.316916684997	558.321071464618	1018.474281133142	522.721002922252	590.417449951391	992.008118299156	420.543440131126	550.757697286226	922.762358878766	343.010731206011	625.591374334443	992.016404726368	280.248965854420	548.695910485889	899.486899622674	51.254175294685	504.991278110591	970.958391962104	23.200023316451	585.583751063774	1076.615539115875	90.484461408631	574.300114263350	1181.020596839528	48.048536518497	583.443638317735	
129	6.600285714286	944.092015820894	973.653130116209	557.876798383361	935.302490648068	949.645945937077	316.141706570215	964.471408130190	1433.775307280079	457.310851200052	857.801373304582	1483.152920955144	626.015788103673	826.871938431472	1543.241354391188	441.964257049559	895.858283472633	1497.442227123550	260.542713132166	847.781151489516	1173.711392736762	127.835876918062	967.190220175214	912.630412356615	121.448733749224	788.699691561250	1155.294783318235	754.111023795252	998.091290548821	964.655633578334	689.696114560990	915.385106919432	720.053347711403	319.723273255177	824.439741253020	663.550227509029	280.234744202053	880.256893541198	593.373415338234	342.762259791119	842.613937094433	473.123720837272	347.425541444628	770.518777011200	386.775005912399	370.324853920965	685.770324978779	338.089689916476	296.216331763187	707.538520226374	278.571270662469	383.958363352942	522.807443001335	68.050666646322	386.826045120409	606.385279331298	38.896666793670	323.148705682596	707.987431271259	90.256723827900	361.308243995947	810.949311598678	44.283652787360	360.048712680235	987.157380051974	747.589227929082	580.325942852295	913.555394483528	659.413413552496	632.529286797464	1002.126867086744	619.915212660306	560.559363095055	1017.849241753884	522.874686304844	591.997731364262	990.113547203160	420.603601458694	551.910205462003	920.578262710365	343.569815769995	627.167102761683	988.249860632033	280.283994998748	549.205348535711	892.447328821522	51.680144392815	505.091659886914	963.800837035680	23.809006333440	585.743734039145	1070.170432955798	90.108987337415	573.492376217417	1174.219430488774	46.689977044837	582.866505709036	
